<?xml version="1.0" encoding="UTF-8" standalone="no"?>
<!DOCTYPE svg PUBLIC "-//W3C//DTD SVG 1.1//EN" "http://www.w3.org/Graphics/SVG/1.1/DTD/svg11.dtd">
<svg width="100%" height="100%" viewBox="0 0 3000 3000" version="1.1" xmlns="http://www.w3.org/2000/svg" xmlns:xlink="http://www.w3.org/1999/xlink" xml:space="preserve" xmlns:serif="http://www.serif.com/" style="fill-rule:evenodd;clip-rule:evenodd;stroke-linecap:round;stroke-linejoin:round;stroke-miterlimit:1.5;">
    <g transform="matrix(0.659175,0,0,0.659175,298.231,862.381)">
        <g transform="matrix(0.648355,0,0,0.648355,501.606,469.549)">
            <path d="M1704.31,39.203L1848.1,513.717L1768.29,513.744L1768.32,513.899L1539.89,513.821L1311.46,513.899L1311.49,513.744L1231.68,513.717L1375.47,39.203L1704.31,39.203Z" style="stroke:black;stroke-width:151.74px;"/>
        </g>
        <g transform="matrix(0.458456,0.458456,-0.458456,0.458456,1550.67,95.76)">
            <path d="M1704.31,39.203L1848.1,513.717L1768.29,513.744L1768.32,513.899L1539.89,513.821L1311.46,513.899L1311.49,513.744L1231.68,513.717L1375.47,39.203L1704.31,39.203Z" style="stroke:black;stroke-width:151.74px;"/>
        </g>
        <g transform="matrix(-0.648355,0,0,-0.648355,2498.39,2631.61)">
            <path d="M1704.31,39.203L1848.1,513.717L1768.29,513.744L1768.32,513.899L1539.89,513.821L1311.46,513.899L1311.49,513.744L1231.68,513.717L1375.47,39.203L1704.31,39.203Z" style="stroke:black;stroke-width:151.74px;"/>
        </g>
        <g transform="matrix(-0.458456,-0.458456,0.458456,-0.458456,1433.81,3036.51)">
            <path d="M1704.31,39.203L1848.1,513.717L1768.29,513.744L1768.32,513.899L1539.89,513.821L1311.46,513.899L1311.49,513.744L1231.68,513.717L1375.47,39.203L1704.31,39.203Z" style="stroke:black;stroke-width:151.74px;"/>
        </g>
        <g transform="matrix(0,0.648355,-0.648355,0,2552.4,501.606)">
            <path d="M1704.31,39.203L1848.1,513.717L1768.29,513.744L1768.32,513.899L1539.89,513.821L1311.46,513.899L1311.49,513.744L1231.68,513.717L1375.47,39.203L1704.31,39.203Z" style="stroke:black;stroke-width:151.74px;"/>
        </g>
        <g transform="matrix(-0.458456,0.458456,-0.458456,-0.458456,2978.13,1568.56)">
            <path d="M1704.31,39.203L1848.1,513.717L1768.29,513.744L1768.32,513.899L1539.89,513.821L1311.46,513.899L1311.49,513.744L1231.68,513.717L1375.47,39.203L1704.31,39.203Z" style="stroke:black;stroke-width:151.74px;"/>
        </g>
        <g transform="matrix(0,-0.648355,0.648355,0,434.649,2498.39)">
            <path d="M1704.31,39.203L1848.1,513.717L1768.29,513.744L1768.32,513.899L1539.89,513.821L1311.46,513.899L1311.49,513.744L1231.68,513.717L1375.47,39.203L1704.31,39.203Z" style="stroke:black;stroke-width:151.74px;"/>
        </g>
        <g transform="matrix(0.458456,-0.458456,0.458456,0.458456,41.1836,1455.49)">
            <path d="M1704.31,39.203L1848.1,513.717L1768.29,513.744L1768.32,513.899L1539.89,513.821L1311.46,513.899L1311.49,513.744L1231.68,513.717L1375.47,39.203L1704.31,39.203Z" style="stroke:black;stroke-width:151.74px;"/>
        </g>
        <path d="M1500,743.544C1947.19,743.544 2310.25,1106.61 2310.25,1553.8C2310.25,2000.99 1947.19,2364.05 1500,2364.05C1052.81,2364.05 689.748,2000.99 689.748,1553.8C689.748,1106.61 1052.81,743.544 1500,743.544ZM1500,1232.69C1647.53,1232.69 1767.31,1352.47 1767.31,1500C1767.31,1647.53 1647.53,1767.31 1500,1767.31C1352.47,1767.31 1232.69,1647.53 1232.69,1500C1232.69,1352.47 1352.47,1232.69 1500,1232.69Z"/>
    </g>
    <g transform="matrix(0.380046,0.061825,-0.061825,0.380046,1524.28,145.427)">
        <g transform="matrix(0.648355,0,0,0.648355,501.606,469.549)">
            <path d="M1704.31,39.203L1848.1,513.717L1768.29,513.744L1768.32,513.899L1539.89,513.821L1311.46,513.899L1311.49,513.744L1231.68,513.717L1375.47,39.203L1704.31,39.203Z" style="stroke:black;stroke-width:187.07px;"/>
        </g>
        <g transform="matrix(0.458456,0.458456,-0.458456,0.458456,1550.67,95.76)">
            <path d="M1704.31,39.203L1848.1,513.717L1768.29,513.744L1768.32,513.899L1539.89,513.821L1311.46,513.899L1311.49,513.744L1231.68,513.717L1375.47,39.203L1704.31,39.203Z" style="stroke:black;stroke-width:187.07px;"/>
        </g>
        <g transform="matrix(-0.648355,0,0,-0.648355,2498.39,2631.61)">
            <path d="M1704.31,39.203L1848.1,513.717L1768.29,513.744L1768.32,513.899L1539.89,513.821L1311.46,513.899L1311.49,513.744L1231.68,513.717L1375.47,39.203L1704.31,39.203Z" style="stroke:black;stroke-width:187.07px;"/>
        </g>
        <g transform="matrix(-0.458456,-0.458456,0.458456,-0.458456,1433.81,3036.51)">
            <path d="M1704.31,39.203L1848.1,513.717L1768.29,513.744L1768.32,513.899L1539.89,513.821L1311.46,513.899L1311.49,513.744L1231.68,513.717L1375.47,39.203L1704.31,39.203Z" style="stroke:black;stroke-width:187.07px;"/>
        </g>
        <g transform="matrix(0,0.648355,-0.648355,0,2552.4,501.606)">
            <path d="M1704.31,39.203L1848.1,513.717L1768.29,513.744L1768.32,513.899L1539.89,513.821L1311.46,513.899L1311.49,513.744L1231.68,513.717L1375.47,39.203L1704.31,39.203Z" style="stroke:black;stroke-width:187.07px;"/>
        </g>
        <g transform="matrix(-0.458456,0.458456,-0.458456,-0.458456,2978.13,1568.56)">
            <path d="M1704.31,39.203L1848.1,513.717L1768.29,513.744L1768.32,513.899L1539.89,513.821L1311.46,513.899L1311.49,513.744L1231.68,513.717L1375.47,39.203L1704.31,39.203Z" style="stroke:black;stroke-width:187.07px;"/>
        </g>
        <g transform="matrix(0,-0.648355,0.648355,0,434.649,2498.39)">
            <path d="M1704.31,39.203L1848.1,513.717L1768.29,513.744L1768.32,513.899L1539.89,513.821L1311.46,513.899L1311.49,513.744L1231.68,513.717L1375.47,39.203L1704.31,39.203Z" style="stroke:black;stroke-width:187.07px;"/>
        </g>
        <g transform="matrix(0.458456,-0.458456,0.458456,0.458456,41.1836,1455.49)">
            <path d="M1704.31,39.203L1848.1,513.717L1768.29,513.744L1768.32,513.899L1539.89,513.821L1311.46,513.899L1311.49,513.744L1231.68,513.717L1375.47,39.203L1704.31,39.203Z" style="stroke:black;stroke-width:187.07px;"/>
        </g>
        <path d="M1500,743.544C1947.19,743.544 2310.25,1106.61 2310.25,1553.8C2310.25,2000.99 1947.19,2364.05 1500,2364.05C1052.81,2364.05 689.748,2000.99 689.748,1553.8C689.748,1106.61 1052.81,743.544 1500,743.544ZM1500,1232.69C1647.53,1232.69 1767.31,1352.47 1767.31,1500C1767.31,1647.53 1647.53,1767.31 1500,1767.31C1352.47,1767.31 1232.69,1647.53 1232.69,1500C1232.69,1352.47 1352.47,1232.69 1500,1232.69Z"/>
    </g>
</svg>
